<svg xmlns="http://www.w3.org/2000/svg" version="1.1" xmlns:xlink="http://www.w3.org/1999/xlink" width="724.22" height="322.76"><svg version="1.1" id="SvgjsSvg1016" xmlns="http://www.w3.org/2000/svg" xmlns:xlink="http://www.w3.org/1999/xlink" x="0px" y="0px" viewBox="0 0 724.22 322.76" style="enable-background:new 0 0 724.22 322.76;" xml:space="preserve">
<style type="text/css">
	.st0{fill:#FEFEFE;}
	.st1{fill:#020202;}
	.st2{fill:#040504;}
</style>
<g>
	<path class="st0" d="M153.77,192.85c0.08,0.33,0.17,0.66,0.25,1c65.14,0,130.29,0.18,195.43-0.05c77.8-0.27,155.6,1.2,233.39-1.09
		c1.49-0.04,3.78,1,4.34-1.08c0.41-1.51-1.68-2.2-2.83-3.11c-6.51-5.16-13.84-9.13-20.24-14.48c-13.06-10.92-14.28-26.9-2.5-38.56
		c5.57-5.52,11.84-10.17,18.88-13.71c5.08-2.55,8.45-1.37,10.48,3.91c1.64,4.29,0.2,7.83-3.18,10.62c-3.46,2.85-7.3,5.28-10.54,8.36
		c-7.38,7.01-6.93,12.84,1.28,18.86c4.81,3.53,9.84,6.76,14.74,10.18c5.52,3.86,10.77,8.18,12.6,14.92c1.19,4.4,3.61,5.1,7.56,5.14
		c20.99,0.2,41.98-0.2,62.96,0.73c12.81,0.57,25.62,0.99,38.43,1.43c3.35,0.12,6.51-0.69,7.91-4.04c1.47-3.53-0.24-6.47-2.8-8.89
		c-1.07-1.02-2.36-1.83-3.61-2.65c-10.49-6.81-22.12-11.19-33.75-15.49c-10.7-3.95-21.44-7.69-31.69-12.81
		c-17.71-8.85-29.15-23.78-39.61-39.75c-10.01-15.3-23.43-26.31-41.14-31.16c-23.16-6.34-46.87-10.19-70.51-14.19
		c-17.93-3.03-32.06-10.98-41.12-27.17c-2.91-5.2-6.15-10.23-9.56-15.12c-11.57-16.6-27.48-25.3-47.8-24.63
		c-17.08,0.56-33.46,5.04-48.76,12.46c-18.39,8.91-37.3,14.02-57.94,13.53c-12.02-0.29-23.7,2.79-33.98,9.63
		c-7.05,4.68-14.31,9.12-20.89,14.39c-6.32,5.07-12.82,7.82-21.05,6.71c-9.43-1.27-17.64,1.58-24.53,8.34
		c-3.25,3.19-7.31,5.4-11.96,5.45c-19.02,0.22-33.27,9.71-45.89,22.84c-12,12.48-26.43,21.5-42.04,28.85
		c-14.22,6.7-29.22,11.63-42.96,19.41c-17.97,10.18-34.16,22.41-46.16,39.51c-2.13,3.03-5.47,6.32-3.37,10.27
		c2.17,4.09,6.8,3.56,10.79,3.37c26.3-1.28,52.63-0.9,78.95-1.05c1.99-0.01,3.95-0.02,5.93-0.59
		c44.02-12.62,86.16-29.72,125.62-53.1c27.72-16.42,53.73-35.44,80.38-53.48c2.06-1.39,3.92-3.1,6.63-3.13
		c4.67-0.05,7.38,2.79,9.1,6.56c2.03,4.43-0.81,7.78-3.65,10.47c-3.12,2.95-6.87,5.23-10.35,7.79
		c-36.43,26.79-74.61,50.67-115.95,69.23C177.36,182.75,165.54,187.74,153.77,192.85z M73.96,226.62c-7.21-0.2-14.1,0.51-21.02,1.7
		c-16.18,2.78-30.26,11.38-45.72,16.16c-6.03,1.86-8.5,8.08-6.57,13.2c2.02,5.35,7.94,8.31,13.88,6.72
		c6.56-1.76,12.7-4.67,18.91-7.37c12.4-5.38,25.22-8.87,38.85-9.33c16-0.54,30.83,3.86,45.13,10.3c35,15.76,70,15.99,104.86,0
		c27.24-12.5,54.42-14.1,82.02-1.41c16.07,7.39,32.86,12.2,50.62,13.08c20.4,1.01,39.9-2.72,58.49-11.25
		c12.55-5.76,25.46-10.07,39.47-10.71c15.3-0.71,29.5,3.14,43.16,9.5c17.2,8.01,35.16,12.4,54.2,12.6
		c20.79,0.22,40.23-4.83,59.03-13.46c16.45-7.55,33.75-10.35,51.88-7.73c12.46,1.8,23.72,6.98,35.2,11.58
		c5.21,2.09,10.34,4.46,16.1,4.61c5,0.13,10.12-3.15,11.37-7.23c1.32-4.31-1.03-9.43-5.74-12.12c-1.85-1.06-3.84-2.06-5.89-2.54
		c-6.47-1.52-12.54-4.12-18.61-6.7c-10.71-4.55-21.71-8.23-33.31-9.34c-22.12-2.11-43.17,2.11-63.45,11.16
		c-29.19,13.04-58.6,13.47-88.18,0.9c-13.26-5.63-26.73-10.77-41.28-12.11c-21.53-1.98-41.89,2.26-61.39,11.27
		c-12.46,5.75-25.49,9.03-39.25,9.72c-18.1,0.9-35.23-2.88-51.71-10.01c-12.37-5.35-25.07-9.63-38.52-10.9
		c-20.18-1.9-39.71,0.91-58.21,9.6c-31.87,14.97-63.76,15.44-95.95,0.73C106.99,230.23,90.86,225.96,73.96,226.62z M78.92,278.74
		c-16.91,0.11-29.43,2.11-41.51,6.74c-9.56,3.66-18.86,7.99-28.68,11.01c-6.6,2.03-9.83,7.25-8.39,12.6
		c1.49,5.51,8.05,8.72,14.56,7.14c5.65-1.38,10.93-3.75,16.21-6.11c11.1-4.95,22.53-8.57,34.76-9.4
		c18.96-1.29,36.76,2.61,54.04,10.47c33.23,15.12,66.79,15.16,99.98-0.07c30.16-13.84,59.79-13.89,90.07-0.04
		c33.56,15.35,67.7,15.75,101.39,0.07c29.81-13.88,59.31-14.44,89.06-0.03c11.85,5.74,24.47,9.32,37.58,10.56
		c22.35,2.12,43.99-0.74,64.47-10.46c25.04-11.87,50.75-14.27,77.24-5.39c10.16,3.41,19.6,8.81,30.17,11.12
		c6.71,1.47,12.33-1.35,13.94-6.95c1.62-5.64-1.64-11.08-8.4-13.16c-8.38-2.59-16.5-5.86-24.55-9.27
		c-16.03-6.78-32.72-9.67-50.04-8.55c-16.74,1.08-32.36,6.37-47.59,13.13c-18.18,8.07-37.15,10.48-56.88,7.72
		c-11.64-1.63-22.37-5.84-32.94-10.55c-21.66-9.64-43.99-13.07-67.46-8.58c-11.49,2.2-22.14,6.68-32.7,11.38
		c-13.21,5.87-27.02,9.23-41.39,9.15c-15.72-0.08-30.81-3.58-45.22-10.24c-15.11-6.98-30.88-11.81-47.76-12.25
		c-19.52-0.51-37.68,4.62-55.26,12.55c-11.24,5.07-22.93,8.55-35.28,9.45c-17.73,1.29-34.63-2-50.77-9.44
		C110.85,283.63,93.53,278.41,78.92,278.74z"></path>
	<path class="st1" d="M153.77,192.85c11.77-5.11,23.59-10.1,35.29-15.35c41.34-18.56,79.51-42.44,115.95-69.23
		c3.48-2.56,7.23-4.84,10.35-7.79c2.84-2.69,5.68-6.03,3.65-10.47c-1.72-3.77-4.44-6.62-9.1-6.56c-2.71,0.03-4.58,1.74-6.63,3.13
		c-26.65,18.05-52.66,37.06-80.38,53.48c-39.46,23.38-81.6,40.48-125.62,53.1c-1.98,0.57-3.94,0.58-5.93,0.59
		c-26.32,0.15-52.64-0.23-78.95,1.05c-3.99,0.19-8.62,0.72-10.79-3.37c-2.1-3.95,1.25-7.24,3.37-10.27
		c12-17.1,28.19-29.33,46.16-39.51c13.74-7.78,28.74-12.72,42.96-19.41c15.61-7.35,30.04-16.37,42.04-28.85
		c12.62-13.13,26.87-22.62,45.89-22.84c4.65-0.05,8.71-2.26,11.96-5.45c6.9-6.75,15.1-9.61,24.53-8.34
		c8.22,1.11,14.72-1.64,21.05-6.71c6.58-5.28,13.84-9.71,20.89-14.39c10.28-6.83,21.97-9.91,33.98-9.63
		c20.63,0.5,39.55-4.61,57.94-13.53c15.3-7.42,31.68-11.9,48.76-12.46c20.32-0.67,36.23,8.03,47.8,24.63
		c3.41,4.89,6.65,9.92,9.56,15.12c9.06,16.18,23.19,24.13,41.12,27.17c23.64,4,47.36,7.85,70.51,14.19
		c17.71,4.85,31.13,15.86,41.14,31.16c10.46,15.97,21.9,30.9,39.61,39.75c10.25,5.12,20.99,8.86,31.69,12.81
		c11.64,4.3,23.26,8.68,33.75,15.49c1.25,0.81,2.53,1.63,3.61,2.65c2.55,2.42,4.27,5.37,2.8,8.89c-1.4,3.35-4.56,4.15-7.91,4.04
		c-12.81-0.44-25.63-0.86-38.43-1.43c-20.98-0.93-41.98-0.53-62.96-0.73c-3.95-0.04-6.37-0.74-7.56-5.14
		c-1.83-6.74-7.08-11.06-12.6-14.92c-4.9-3.42-9.93-6.65-14.74-10.18c-8.21-6.03-8.65-11.85-1.28-18.86
		c3.24-3.08,7.08-5.51,10.54-8.36c3.38-2.79,4.82-6.33,3.18-10.62c-2.03-5.28-5.4-6.46-10.48-3.91
		c-7.05,3.54-13.31,8.19-18.88,13.71c-11.78,11.66-10.56,27.64,2.5,38.56c6.4,5.35,13.73,9.33,20.24,14.48
		c1.15,0.91,3.24,1.6,2.83,3.11c-0.56,2.08-2.85,1.03-4.34,1.08c-77.79,2.29-155.59,0.82-233.39,1.09
		c-65.14,0.23-130.29,0.05-195.43,0.05C153.94,193.51,153.85,193.18,153.77,192.85z"></path>
	<path class="st2" d="M73.96,226.62c16.9-0.65,33.02,3.62,48.37,10.63c32.18,14.71,64.08,14.24,95.95-0.73
		c18.5-8.69,38.02-11.5,58.21-9.6c13.44,1.27,26.15,5.55,38.52,10.9c16.48,7.13,33.61,10.91,51.71,10.01
		c13.76-0.68,26.79-3.96,39.25-9.72c19.5-9,39.87-13.25,61.39-11.27c14.56,1.34,28.03,6.48,41.28,12.11
		c29.58,12.56,58.99,12.14,88.18-0.9c20.27-9.06,41.32-13.28,63.45-11.16c11.6,1.11,22.6,4.78,33.31,9.34
		c6.07,2.58,12.13,5.18,18.61,6.7c2.05,0.48,4.04,1.48,5.89,2.54c4.72,2.69,7.06,7.82,5.74,12.12c-1.25,4.08-6.36,7.35-11.37,7.23
		c-5.76-0.15-10.9-2.52-16.1-4.61c-11.49-4.6-22.74-9.78-35.2-11.58c-18.13-2.62-35.43,0.17-51.88,7.73
		c-18.79,8.63-38.24,13.68-59.03,13.46c-19.04-0.2-37-4.59-54.2-12.6c-13.66-6.36-27.86-10.2-43.16-9.5
		c-14.01,0.65-26.92,4.96-39.47,10.71c-18.59,8.52-38.09,12.26-58.49,11.25c-17.76-0.88-34.55-5.7-50.62-13.08
		c-27.6-12.69-54.78-11.09-82.02,1.41c-34.86,15.99-69.86,15.76-104.86,0c-14.3-6.44-29.13-10.84-45.13-10.3
		c-13.64,0.46-26.45,3.95-38.85,9.33c-6.21,2.7-12.34,5.61-18.91,7.37c-5.93,1.59-11.85-1.37-13.88-6.72
		c-1.93-5.12,0.54-11.34,6.57-13.2c15.46-4.78,29.54-13.38,45.72-16.16C59.86,227.13,66.76,226.42,73.96,226.62z"></path>
	<path class="st2" d="M78.92,278.74c14.61-0.33,31.94,4.9,48.65,12.6c16.14,7.44,33.04,10.73,50.77,9.44
		c12.35-0.9,24.04-4.37,35.28-9.45c17.57-7.94,35.74-13.06,55.26-12.55c16.89,0.44,32.65,5.27,47.76,12.25
		c14.42,6.66,29.51,10.15,45.22,10.24c14.37,0.08,28.18-3.29,41.39-9.15c10.57-4.69,21.21-9.18,32.7-11.38
		c23.46-4.49,45.8-1.05,67.46,8.58c10.57,4.7,21.31,8.92,32.94,10.55c19.74,2.76,38.71,0.35,56.88-7.72
		c15.23-6.76,30.85-12.05,47.59-13.13c17.32-1.12,34.01,1.77,50.04,8.55c8.06,3.41,16.17,6.68,24.55,9.27
		c6.75,2.09,10.02,7.52,8.4,13.16c-1.61,5.6-7.23,8.42-13.94,6.95c-10.57-2.31-20-7.71-30.17-11.12
		c-26.48-8.88-52.2-6.49-77.24,5.39c-20.48,9.71-42.12,12.58-64.47,10.46c-13.11-1.24-25.73-4.82-37.58-10.56
		c-29.74-14.4-59.25-13.84-89.06,0.03c-33.69,15.68-67.83,15.28-101.39-0.07c-30.28-13.85-59.92-13.81-90.07,0.04
		c-33.19,15.24-66.75,15.19-99.98,0.07c-17.28-7.86-35.08-11.77-54.04-10.47c-12.23,0.83-23.66,4.45-34.76,9.4
		c-5.28,2.35-10.56,4.73-16.21,6.11c-6.51,1.59-13.07-1.63-14.56-7.14c-1.44-5.35,1.78-10.57,8.39-12.6
		c9.82-3.02,19.12-7.35,28.68-11.01C49.49,280.84,62,278.84,78.92,278.74z"></path>
</g>
</svg><style>@media (prefers-color-scheme: light) { :root { filter: none; } }
@media (prefers-color-scheme: dark) { :root { filter: none; } }
</style></svg>