<?xml version="1.0" encoding="UTF-8"?>
<svg id="Capa_1" xmlns="http://www.w3.org/2000/svg" version="1.1" viewBox="0 0 1920 1080">
  <!-- Generator: Adobe Illustrator 29.1.0, SVG Export Plug-In . SVG Version: 2.1.0 Build 142)  -->
  <defs>
    <style>
      .st0 {
        fill: #fff;
      }
	  path {
        shape-rendering: geometricPrecision;
      }
    </style>
  </defs>
  <path class="st0" d="M1458.02,34v1024H434.02V34h1024ZM1191.51,500.77c1.08,1.1,3.69,1.14,5.22,1.27,17.15,1.47,37.4-.42,55.03-.08,14.35.27,35.28,3.65,48.93,2.06,13.64-1.58,4.11-12.82-2.85-17.19-22.01-13.83-50.1-17.01-71.91-32.02-30.49-20.97-30.84-53.29-72.2-65.73-23.7-7.13-49.45-8.93-73.38-14.55-43.02-10.1-34.98-41.37-64.98-58.95-41.58-24.37-82,15.39-122.26,18.46-22.09,1.68-31.26-.95-51.41,11.54-6.09,3.78-22.03,17.48-27.01,18.96-6.34,1.88-15.95-.57-23.08.9-8.05,1.66-13.05,9.85-19.72,12.26-4.97,1.8-12.6,1.51-18.22,2.76-18.79,4.18-25.72,15.62-38.91,27.05-35.29,30.57-81.7,34.18-115.43,69.46-4.8,5.02-22.35,24.28-6.99,26.05,8.82,1.01,18.49-.94,26.96-1.06,18.8-.27,40.75,1.67,59.02.08,18.34-1.6,60.86-19.83,79.07-27.86,48.12-21.21,89.82-51.35,132.84-81.02,10.14-4.01,18.19,5.26,10.68,14.58-4.11,5.1-23.4,17.49-30,22.08-42.86,29.85-80.9,47.45-127.86,69.01-1.52.7-4.78,1.65-5.32,3.16l432.94-1.12,1.15-1.88c-27.95-17.11-52.61-37.63-15.82-63.81,4.84-3.45,13.01-10.48,17.77-4.16,10.81,14.34-20.44,18.94-17.26,33.26,1.6,7.22,23.5,17.41,29.3,24.7,2.59,3.25,4.57,10.64,5.7,11.79ZM1304.83,555.34c-.97-.96-3.34-2.23-4.66-2.83-9.99-4.52-29.12-11.36-39.74-14.22-55.66-14.99-83.34,21.52-134.57,17.7-23.82-1.77-42.73-15.69-65.24-19.69-50.57-8.99-75.99,22.71-122.63,19.75-24.25-1.54-41.8-13.94-64.2-18.73-54.74-11.71-78.79,21.89-128.61,18.73-26.83-1.7-48.65-18.95-74.89-21.03-30.46-2.42-51.78,6.85-79.11,17.78-11.48,6.24-6.3,21.18,6.18,20.23,9.77-.74,27.9-11.51,39.65-14.35,46.3-11.2,67.36,16.58,109.23,19.31,32.14,2.1,46.01-7.89,73.9-17.01,51.13-16.72,71.85,14.28,117.91,17.01,30.59,1.81,44.19-6.7,70.9-16.01,54.01-18.82,70.37,13.11,117.91,16.01s80.32-30.7,126.57-19.69c12.32,2.93,35.52,16.36,46.2,14.64,8.16-1.32,11.32-11.54,5.21-17.6ZM649.61,587.3c-21.98,1.96-40.22,12.29-60.7,19.24-8.01,6.53-3.35,17.99,6.49,18.5,8.15.42,26.27-9.86,35.43-12.54,52.1-15.24,76.63,18.42,123.38,18.58,48.99.17,71.53-35.45,126.89-17.1,30.53,10.12,44.66,20.23,79.78,15.89,20.36-2.52,32.82-11.26,51.06-16.89,52-16.05,76.25,18.1,123.9,18.1,43.84,0,68.2-29.35,115.44-20.63,13.98,2.58,33.73,14.91,45.54,15.49s16.09-14.59,5.08-20.16c-26.03-8.83-47.53-20.54-76.13-18.77-30.06,1.86-53.28,20.16-81.88,22.04-42.41,2.78-67.82-24.67-109.93-22.04-31.57,1.98-55.14,22.53-86.93,22.79-37.79.3-63.76-25.35-103.89-22.79-29.37,1.88-51.77,20.19-79.88,22.04-43.21,2.84-68.86-25.73-113.64-21.75Z"/>
  <path d="M1191.51,500.77c-1.13-1.15-3.11-8.54-5.7-11.79-5.8-7.29-27.7-17.48-29.3-24.7-3.17-14.32,28.08-18.91,17.26-33.26-4.76-6.32-12.93.72-17.77,4.16-36.79,26.17-12.14,46.7,15.82,63.81l-1.15,1.88-432.94,1.12c.54-1.51,3.8-2.47,5.32-3.16,46.96-21.56,85-39.16,127.86-69.01,6.59-4.59,25.89-16.99,30-22.08,7.51-9.32-.54-18.59-10.68-14.58-43.03,29.67-84.73,59.81-132.84,81.02-18.2,8.02-60.73,26.26-79.07,27.86-18.27,1.6-40.22-.34-59.02-.08-8.47.12-18.14,2.08-26.96,1.06-15.36-1.77,2.2-21.03,6.99-26.05,33.72-35.28,80.14-38.89,115.43-69.46,13.19-11.43,20.12-22.87,38.91-27.05,5.62-1.25,13.24-.97,18.22-2.76,6.67-2.41,11.67-10.6,19.72-12.26,7.13-1.47,16.74.98,23.08-.9,4.98-1.48,20.92-15.18,27.01-18.96,20.15-12.49,29.31-9.86,51.41-11.54,40.26-3.07,80.68-42.83,122.26-18.46,30.01,17.58,21.96,48.85,64.98,58.95,23.93,5.62,49.68,7.41,73.38,14.55,41.35,12.44,41.7,44.76,72.2,65.73,21.82,15,49.91,18.18,71.91,32.02,6.96,4.37,16.49,15.61,2.85,17.19-13.65,1.58-34.58-1.79-48.93-2.06-17.63-.34-37.88,1.56-55.03.08-1.53-.13-4.14-.18-5.22-1.27Z"/>
  <path d="M1304.83,555.34c6.11,6.06,2.95,16.29-5.21,17.6-10.67,1.72-33.87-11.71-46.2-14.64-46.25-11.01-77.49,22.69-126.57,19.69s-63.9-34.83-117.91-16.01c-26.71,9.31-40.31,17.82-70.9,16.01-46.06-2.73-66.78-33.72-117.91-17.01-27.89,9.12-41.76,19.11-73.9,17.01-41.87-2.74-62.92-30.51-109.23-19.31-11.75,2.84-29.88,13.61-39.65,14.35-12.49.95-17.66-13.99-6.18-20.23,27.33-10.93,48.65-20.2,79.11-17.78,26.24,2.08,48.06,19.33,74.89,21.03,49.82,3.15,73.87-30.45,128.61-18.73,22.4,4.79,39.96,17.2,64.2,18.73,46.64,2.96,72.06-28.74,122.63-19.75,22.52,4,41.42,17.92,65.24,19.69,51.23,3.82,78.92-32.69,134.57-17.7,10.62,2.86,29.75,9.7,39.74,14.22,1.32.6,3.69,1.87,4.66,2.83Z"/>
  <path d="M649.61,587.3c44.78-3.98,70.43,24.58,113.64,21.75,28.12-1.85,50.51-20.16,79.88-22.04,40.13-2.57,66.1,23.09,103.89,22.79,31.78-.25,55.36-20.81,86.93-22.79,42.11-2.64,67.52,24.81,109.93,22.04,28.6-1.87,51.83-20.18,81.88-22.04,28.61-1.77,50.1,9.94,76.13,18.77,11.01,5.57,6.55,20.74-5.08,20.16s-31.56-12.91-45.54-15.49c-47.23-8.71-71.6,20.64-115.44,20.63-47.65,0-71.9-34.15-123.9-18.1-18.24,5.63-30.7,14.38-51.06,16.89-35.12,4.34-49.25-5.77-79.78-15.89-55.36-18.35-77.9,17.27-126.89,17.1-46.75-.16-71.28-33.82-123.38-18.58-9.16,2.68-27.28,12.96-35.43,12.54-9.84-.51-14.5-11.97-6.49-18.5,20.48-6.95,38.71-17.29,60.7-19.24Z"/>
  <g>
    <path d="M663.22,686.95c-.21,4.26-1.41,8.01-3.61,11.27-2.2,3.26-5.3,5.79-9.28,7.58-3.98,1.79-8.53,2.69-13.64,2.69-8.43,0-15.07-2.62-19.92-7.85-4.85-5.23-7.27-12.62-7.27-22.17v-3.02c0-5.99,1.09-11.23,3.28-15.73,2.19-4.49,5.34-7.96,9.45-10.41,4.11-2.45,8.87-3.67,14.28-3.67,7.78,0,14.04,1.95,18.77,5.86,4.73,3.9,7.42,9.29,8.06,16.15h-15.42c-.12-3.72-1.1-6.4-2.95-8.02-1.85-1.62-4.67-2.44-8.46-2.44s-6.67,1.37-8.46,4.12c-1.79,2.74-2.73,7.12-2.82,13.14v4.33c0,6.52.86,11.18,2.58,13.98,1.72,2.8,4.68,4.2,8.88,4.2,3.55,0,6.27-.8,8.15-2.39,1.88-1.6,2.88-4.13,3-7.6h15.38Z"/>
    <path d="M667.98,684.52c0-4.54.93-8.57,2.78-12.11,1.85-3.54,4.51-6.26,7.98-8.17,3.47-1.9,7.54-2.86,12.21-2.86,7.14,0,12.76,2.11,16.88,6.32,4.11,4.21,6.17,9.95,6.17,17.2v.5c0,7.08-2.06,12.7-6.19,16.86-4.13,4.16-9.72,6.24-16.77,6.24s-12.24-1.94-16.35-5.82c-4.11-3.88-6.33-9.13-6.65-15.77l-.04-2.39ZM682.83,685.4c0,4.2.69,7.28,2.07,9.24,1.38,1.96,3.42,2.94,6.13,2.94,5.29,0,7.99-3.88,8.11-11.63v-1.43c0-8.15-2.73-12.22-8.2-12.22-4.97,0-7.65,3.51-8.06,10.54l-.04,2.56Z"/>
    <path d="M745.5,694.89c0-1.2-.66-2.17-1.98-2.9-1.32-.73-3.83-1.48-7.54-2.27-3.7-.78-6.76-1.81-9.17-3.09-2.41-1.27-4.25-2.82-5.51-4.64-1.26-1.82-1.89-3.91-1.89-6.26,0-4.17,1.81-7.61,5.42-10.31,3.61-2.7,8.34-4.05,14.19-4.05,6.29,0,11.34,1.36,15.16,4.07,3.82,2.72,5.73,6.29,5.73,10.71h-14.9c0-3.64-2.01-5.46-6.04-5.46-1.56,0-2.86.41-3.92,1.24-1.06.83-1.59,1.86-1.59,3.09s.65,2.28,1.94,3.07c1.29.78,3.36,1.43,6.19,1.93,2.83.5,5.32,1.11,7.47,1.81,7.17,2.35,10.75,6.57,10.75,12.64,0,4.14-1.93,7.52-5.8,10.12-3.86,2.6-8.87,3.91-15.01,3.91-4.08,0-7.73-.7-10.93-2.1-3.2-1.4-5.7-3.3-7.49-5.71-1.79-2.41-2.69-4.94-2.69-7.6h13.88c.06,2.1.79,3.63,2.2,4.6,1.41.96,3.22,1.45,5.42,1.45,2.03,0,3.55-.39,4.56-1.18,1.01-.78,1.52-1.81,1.52-3.07Z"/>
    <path d="M789.83,708.5c-7.32,0-13.24-2.08-17.76-6.24-4.52-4.16-6.79-9.57-6.79-16.23v-1.18c0-4.65.9-8.75,2.71-12.3,1.81-3.55,4.44-6.31,7.91-8.25,3.47-1.95,7.58-2.92,12.34-2.92,6.7,0,11.99,1.98,15.86,5.94,3.88,3.96,5.82,9.48,5.82,16.57v5.5h-29.53c.53,2.55,1.69,4.55,3.48,6,1.79,1.46,4.11,2.18,6.96,2.18,4.7,0,8.37-1.57,11.02-4.7l6.79,7.64c-1.85,2.44-4.47,4.37-7.87,5.82-3.39,1.44-7.04,2.16-10.95,2.16ZM788.15,672.3c-4.35,0-6.93,2.74-7.76,8.23h14.98v-1.09c.06-2.27-.54-4.02-1.81-5.27-1.26-1.25-3.07-1.87-5.42-1.87Z"/>
    <path d="M836.06,697.58c2.09,0,3.7-.54,4.85-1.62,1.15-1.08,1.7-2.58,1.67-4.51h13.93c0,4.98-1.87,9.07-5.62,12.26s-8.57,4.79-14.48,4.79c-6.93,0-12.4-2.07-16.39-6.21-4-4.14-5.99-9.88-5.99-17.22v-.59c0-4.59.89-8.64,2.67-12.16,1.78-3.51,4.34-6.21,7.69-8.11,3.35-1.89,7.32-2.83,11.9-2.83,6.2,0,11.12,1.64,14.76,4.91,3.64,3.28,5.46,7.71,5.46,13.31h-13.93c0-2.35-.6-4.16-1.81-5.42-1.21-1.26-2.82-1.89-4.85-1.89-3.85,0-6.1,2.34-6.74,7.01-.21,1.48-.31,3.53-.31,6.13,0,4.56.57,7.73,1.72,9.49s2.97,2.65,5.46,2.65Z"/>
    <path d="M877.31,667.09c3.17-3.81,7.23-5.71,12.16-5.71,5.26,0,9.22,1.48,11.9,4.45,2.67,2.97,4.04,7.35,4.1,13.14v28.68h-14.9v-28.34c0-2.41-.51-4.18-1.54-5.31-1.03-1.13-2.78-1.7-5.24-1.7-3.06,0-5.22.92-6.48,2.77v32.59h-14.85v-64.5h14.85v23.94Z"/>
    <path d="M940.59,707.66c-.53-.92-1-2.28-1.41-4.07-2.73,3.28-6.55,4.91-11.46,4.91-4.5,0-8.31-1.29-11.46-3.88-3.14-2.59-4.72-5.84-4.72-9.76,0-4.93,1.91-8.65,5.73-11.17,3.82-2.52,9.37-3.78,16.66-3.78h4.58v-2.41c0-4.19-1.89-6.29-5.68-6.29-3.53,0-5.29,1.66-5.29,4.98h-14.85c0-4.39,1.96-7.96,5.88-10.7,3.92-2.74,8.92-4.11,15.01-4.11s10.88,1.41,14.41,4.24c3.53,2.83,5.33,6.71,5.42,11.63v20.11c.06,4.17.73,7.36,2.03,9.57v.71h-14.85ZM931.29,698.42c1.85,0,3.39-.38,4.61-1.13,1.22-.76,2.09-1.61,2.62-2.56v-7.26h-4.32c-5.17,0-7.76,2.21-7.76,6.63,0,1.29.46,2.33,1.37,3.13.91.8,2.07,1.2,3.48,1.2Z"/>
    <path d="M1007.18,708.5c-7.32,0-13.24-2.08-17.76-6.24-4.52-4.16-6.79-9.57-6.79-16.23v-1.18c0-4.65.9-8.75,2.71-12.3,1.81-3.55,4.44-6.31,7.91-8.25,3.47-1.95,7.58-2.92,12.34-2.92,6.7,0,11.99,1.98,15.86,5.94,3.88,3.96,5.82,9.48,5.82,16.57v5.5h-29.53c.53,2.55,1.69,4.55,3.48,6,1.79,1.46,4.11,2.18,6.96,2.18,4.7,0,8.37-1.57,11.02-4.7l6.79,7.64c-1.85,2.44-4.47,4.37-7.87,5.82-3.39,1.44-7.04,2.16-10.95,2.16ZM1005.5,672.3c-4.35,0-6.93,2.74-7.76,8.23h14.98v-1.09c.06-2.27-.54-4.02-1.81-5.27-1.26-1.25-3.07-1.87-5.42-1.87Z"/>
    <path d="M1046.88,662.22l.48,5.33c3.29-4.12,7.83-6.17,13.62-6.17,4.96,0,8.67,1.41,11.13,4.24,2.45,2.83,3.72,7.08,3.81,12.77v29.27h-14.9v-28.68c0-2.29-.48-3.98-1.45-5.06-.97-1.08-2.73-1.62-5.29-1.62-2.91,0-5.07,1.09-6.48,3.28v32.08h-14.85v-45.44h13.93Z"/>
    <path d="M1159.21,686.95c-.21,4.26-1.41,8.01-3.61,11.27-2.2,3.26-5.3,5.79-9.28,7.58-3.98,1.79-8.53,2.69-13.64,2.69-8.43,0-15.07-2.62-19.92-7.85-4.85-5.23-7.27-12.62-7.27-22.17v-3.02c0-5.99,1.09-11.23,3.28-15.73,2.19-4.49,5.34-7.96,9.45-10.41,4.11-2.45,8.87-3.67,14.28-3.67,7.78,0,14.04,1.95,18.77,5.86,4.73,3.9,7.42,9.29,8.06,16.15h-15.42c-.12-3.72-1.1-6.4-2.95-8.02-1.85-1.62-4.67-2.44-8.46-2.44s-6.67,1.37-8.46,4.12c-1.79,2.74-2.73,7.12-2.82,13.14v4.33c0,6.52.86,11.18,2.58,13.98,1.72,2.8,4.68,4.2,8.88,4.2,3.55,0,6.27-.8,8.15-2.39,1.88-1.6,2.88-4.13,3-7.6h15.38Z"/>
    <path d="M1163.97,684.52c0-4.54.93-8.57,2.78-12.11,1.85-3.54,4.51-6.26,7.98-8.17,3.47-1.9,7.54-2.86,12.21-2.86,7.14,0,12.76,2.11,16.88,6.32,4.11,4.21,6.17,9.95,6.17,17.2v.5c0,7.08-2.06,12.7-6.19,16.86-4.13,4.16-9.72,6.24-16.77,6.24s-12.24-1.94-16.35-5.82c-4.11-3.88-6.33-9.13-6.65-15.77l-.04-2.39ZM1178.82,685.4c0,4.2.69,7.28,2.07,9.24,1.38,1.96,3.42,2.94,6.13,2.94,5.29,0,7.99-3.88,8.11-11.63v-1.43c0-8.15-2.73-12.22-8.2-12.22-4.97,0-7.65,3.51-8.06,10.54l-.04,2.56Z"/>
    <path d="M1260.79,685.27c0,7.05-1.67,12.69-5,16.9-3.33,4.21-7.84,6.32-13.51,6.32-4.38,0-7.98-1.53-10.8-4.58v21.21h-14.85v-62.9h13.88l.44,4.2c2.85-3.36,6.59-5.04,11.24-5.04,5.88,0,10.44,2.06,13.71,6.19,3.26,4.13,4.89,9.81,4.89,17.03v.67ZM1245.94,684.39c0-8.06-2.47-12.09-7.4-12.09-3.53,0-5.88,1.2-7.05,3.61v17.89c1.29,2.52,3.67,3.78,7.14,3.78,4.73,0,7.17-3.89,7.32-11.67v-1.51Z"/>
    <path d="M1290.4,708.5c-7.32,0-13.24-2.08-17.76-6.24-4.52-4.16-6.79-9.57-6.79-16.23v-1.18c0-4.65.9-8.75,2.71-12.3,1.81-3.55,4.44-6.31,7.91-8.25,3.47-1.95,7.58-2.92,12.34-2.92,6.7,0,11.99,1.98,15.86,5.94,3.88,3.96,5.82,9.48,5.82,16.57v5.5h-29.53c.53,2.55,1.69,4.55,3.48,6,1.79,1.46,4.11,2.18,6.96,2.18,4.7,0,8.37-1.57,11.02-4.7l6.79,7.64c-1.85,2.44-4.47,4.37-7.87,5.82-3.39,1.44-7.04,2.16-10.95,2.16ZM1288.73,672.3c-4.35,0-6.93,2.74-7.76,8.23h14.98v-1.09c.06-2.27-.54-4.02-1.81-5.27-1.26-1.25-3.07-1.87-5.42-1.87Z"/>
  </g>
  <text/>
  <text/>
  <text/>
</svg>