<?xml version="1.0" encoding="UTF-8"?>
<svg id="Capa_1" xmlns="http://www.w3.org/2000/svg" version="1.1" viewBox="0 0 1920 1080" width="32" height="32">
  <!-- Generator: Adobe Illustrator 29.1.0, SVG Export Plug-In . SVG Version: 2.1.0 Build 142)  -->
  <defs>
    <style>
      .st0 {
        fill: #fff;
      }
	        path {
        shape-rendering: geometricPrecision;
      }
    </style>
  </defs>
  <path class="st0" d="M1458.02,34v1024H434.02V34h1024ZM1191.51,500.77c1.08,1.1,3.69,1.14,5.22,1.27,17.15,1.47,37.4-.42,55.03-.08,14.35.27,35.28,3.65,48.93,2.06,13.64-1.58,4.11-12.82-2.85-17.19-22.01-13.83-50.1-17.01-71.91-32.02-30.49-20.97-30.84-53.29-72.2-65.73-23.7-7.13-49.45-8.93-73.38-14.55-43.02-10.1-34.98-41.37-64.98-58.95-41.58-24.37-82,15.39-122.26,18.46-22.09,1.68-31.26-.95-51.41,11.54-6.09,3.78-22.03,17.48-27.01,18.96-6.34,1.88-15.95-.57-23.08.9-8.05,1.66-13.05,9.85-19.72,12.26-4.97,1.8-12.6,1.51-18.22,2.76-18.79,4.18-25.72,15.62-38.91,27.05-35.29,30.57-81.7,34.18-115.43,69.46-4.8,5.02-22.35,24.28-6.99,26.05,8.82,1.01,18.49-.94,26.96-1.06,18.8-.27,40.75,1.67,59.02.08,18.34-1.6,60.86-19.83,79.07-27.86,48.12-21.21,89.82-51.35,132.84-81.02,10.14-4.01,18.19,5.26,10.68,14.58-4.11,5.1-23.4,17.49-30,22.08-42.86,29.85-80.9,47.45-127.86,69.01-1.52.7-4.78,1.65-5.32,3.16l432.94-1.12,1.15-1.88c-27.95-17.11-52.61-37.63-15.82-63.81,4.84-3.45,13.01-10.48,17.77-4.16,10.81,14.34-20.44,18.94-17.26,33.26,1.6,7.22,23.5,17.41,29.3,24.7,2.59,3.25,4.57,10.64,5.7,11.79ZM1304.83,555.34c-.97-.96-3.34-2.23-4.66-2.83-9.99-4.52-29.12-11.36-39.74-14.22-55.66-14.99-83.34,21.52-134.57,17.7-23.82-1.77-42.73-15.69-65.24-19.69-50.57-8.99-75.99,22.71-122.63,19.75-24.25-1.54-41.8-13.94-64.2-18.73-54.74-11.71-78.79,21.89-128.61,18.73-26.83-1.7-48.65-18.95-74.89-21.03-30.46-2.42-51.78,6.85-79.11,17.78-11.48,6.24-6.3,21.18,6.18,20.23,9.77-.74,27.9-11.51,39.65-14.35,46.3-11.2,67.36,16.58,109.23,19.31,32.14,2.1,46.01-7.89,73.9-17.01,51.13-16.72,71.85,14.28,117.91,17.01,30.59,1.81,44.19-6.7,70.9-16.01,54.01-18.82,70.37,13.11,117.91,16.01s80.32-30.7,126.57-19.69c12.32,2.93,35.52,16.36,46.2,14.64,8.16-1.32,11.32-11.54,5.21-17.6ZM649.61,587.3c-21.98,1.96-40.22,12.29-60.7,19.24-8.01,6.53-3.35,17.99,6.49,18.5,8.15.42,26.27-9.86,35.43-12.54,52.1-15.24,76.63,18.42,123.38,18.58,48.99.17,71.53-35.45,126.89-17.1,30.53,10.12,44.66,20.23,79.78,15.89,20.36-2.52,32.82-11.26,51.06-16.89,52-16.05,76.25,18.1,123.9,18.1,43.84,0,68.2-29.35,115.44-20.63,13.98,2.58,33.73,14.91,45.54,15.49s16.09-14.59,5.08-20.16c-26.03-8.83-47.53-20.54-76.13-18.77-30.06,1.86-53.28,20.16-81.88,22.04-42.41,2.78-67.82-24.67-109.93-22.04-31.57,1.98-55.14,22.53-86.93,22.79-37.79.3-63.76-25.35-103.89-22.79-29.37,1.88-51.77,20.19-79.88,22.04-43.21,2.84-68.86-25.73-113.64-21.75Z"/>
  <path d="M1191.51,500.77c-1.13-1.15-3.11-8.54-5.7-11.79-5.8-7.29-27.7-17.48-29.3-24.7-3.17-14.32,28.08-18.91,17.26-33.26-4.76-6.32-12.93.72-17.77,4.16-36.79,26.17-12.14,46.7,15.82,63.81l-1.15,1.88-432.94,1.12c.54-1.51,3.8-2.47,5.32-3.16,46.96-21.56,85-39.16,127.86-69.01,6.59-4.59,25.89-16.99,30-22.08,7.51-9.32-.54-18.59-10.68-14.58-43.03,29.67-84.73,59.81-132.84,81.02-18.2,8.02-60.73,26.26-79.07,27.86-18.27,1.6-40.22-.34-59.02-.08-8.47.12-18.14,2.08-26.96,1.06-15.36-1.77,2.2-21.03,6.99-26.05,33.72-35.28,80.14-38.89,115.43-69.46,13.19-11.43,20.12-22.87,38.91-27.05,5.62-1.25,13.24-.97,18.22-2.76,6.67-2.41,11.67-10.6,19.72-12.26,7.13-1.47,16.74.98,23.08-.9,4.98-1.48,20.92-15.18,27.01-18.96,20.15-12.49,29.31-9.86,51.41-11.54,40.26-3.07,80.68-42.83,122.26-18.46,30.01,17.58,21.96,48.85,64.98,58.95,23.93,5.62,49.68,7.41,73.38,14.55,41.35,12.44,41.7,44.76,72.2,65.73,21.82,15,49.91,18.18,71.91,32.02,6.96,4.37,16.49,15.61,2.85,17.19-13.65,1.58-34.58-1.79-48.93-2.06-17.63-.34-37.88,1.56-55.03.08-1.53-.13-4.14-.18-5.22-1.27Z"/>
  <path d="M1304.83,555.34c6.11,6.06,2.95,16.29-5.21,17.6-10.67,1.72-33.87-11.71-46.2-14.64-46.25-11.01-77.49,22.69-126.57,19.69s-63.9-34.83-117.91-16.01c-26.71,9.31-40.31,17.82-70.9,16.01-46.06-2.73-66.78-33.72-117.91-17.01-27.89,9.12-41.76,19.11-73.9,17.01-41.87-2.74-62.92-30.51-109.23-19.31-11.75,2.84-29.88,13.61-39.65,14.35-12.49.95-17.66-13.99-6.18-20.23,27.33-10.93,48.65-20.2,79.11-17.78,26.24,2.08,48.06,19.33,74.89,21.03,49.82,3.15,73.87-30.45,128.61-18.73,22.4,4.79,39.96,17.2,64.2,18.73,46.64,2.96,72.06-28.74,122.63-19.75,22.52,4,41.42,17.92,65.24,19.69,51.23,3.82,78.92-32.69,134.57-17.7,10.62,2.86,29.75,9.7,39.74,14.22,1.32.6,3.69,1.87,4.66,2.83Z"/>
  <path d="M649.61,587.3c44.78-3.98,70.43,24.58,113.64,21.75,28.12-1.85,50.51-20.16,79.88-22.04,40.13-2.57,66.1,23.09,103.89,22.79,31.78-.25,55.36-20.81,86.93-22.79,42.11-2.64,67.52,24.81,109.93,22.04,28.6-1.87,51.83-20.18,81.88-22.04,28.61-1.77,50.1,9.94,76.13,18.77,11.01,5.57,6.55,20.74-5.08,20.16s-31.56-12.91-45.54-15.49c-47.23-8.71-71.6,20.64-115.44,20.63-47.65,0-71.9-34.15-123.9-18.1-18.24,5.63-30.7,14.38-51.06,16.89-35.12,4.34-49.25-5.77-79.78-15.89-55.36-18.35-77.9,17.27-126.89,17.1-46.75-.16-71.28-33.82-123.38-18.58-9.16,2.68-27.28,12.96-35.43,12.54-9.84-.51-14.5-11.97-6.49-18.5,20.48-6.95,38.71-17.29,60.7-19.24Z"/>
</svg>